<svg width="220" height="184" viewBox="0 0 220 184" fill="none" xmlns="http://www.w3.org/2000/svg"><path d="M5 .13h15.313c1.766 0 3.39.946 4.271 2.472l19.731 34.426H215a4.923 4.923 0 0 1 4.534 6.847L188.543 116.8a4.922 4.922 0 0 1-4.529 2.997H59.086c-.24 0-.48-.022-.716-.055-.23.033-.465.055-.7.055H41.291a5.417 5.417 0 0 0-5.408 5.408v8.51c0 3.04 2.477 5.61 5.408 5.61h32.446a22.157 22.157 0 0 1 2.964-.202c1.007 0 1.996.071 2.964.202h91.164a22.166 22.166 0 0 1 2.964-.202c12.338 0 22.373 10.035 22.373 22.373 0 12.337-10.035 22.372-22.373 22.372-12.337 0-22.372-10.035-22.372-22.372 0-4.55 1.367-8.789 3.713-12.327H95.361a22.221 22.221 0 0 1 3.713 12.327c0 12.337-10.035 22.372-22.373 22.372-12.337 0-22.372-10.035-22.372-22.372 0-4.55 1.367-8.789 3.713-12.327H41.29c-8.41 0-15.252-6.934-15.252-15.454v-8.51c0-8.411 6.841-15.252 15.252-15.252h11.545L36.845 43.787 17.464 9.974H5A4.922 4.922 0 0 1 5 .13Zm168.788 173.896c6.907 0 12.529-5.622 12.529-12.529 0-6.322-4.709-11.561-10.801-12.409a5.001 5.001 0 0 1-.864.082h-3.095c-5.846 1.056-10.298 6.18-10.298 12.327 0 6.907 5.622 12.529 12.529 12.529Zm-97.087 0c6.907 0 12.53-5.622 12.53-12.529 0-6.147-4.452-11.271-10.298-12.327h-4.458c-5.846 1.056-10.297 6.18-10.297 12.327-.006 6.907 5.616 12.529 12.523 12.529Zm-13.737-64.072H180.75l26.813-63.082H47.717l15.247 63.082Z" fill="#4E9054"/></svg>