<svg xmlns="http://www.w3.org/2000/svg" width="951.199" height="226.549" viewBox="0 0 951.199 226.549"><path fill="#fdecda" d="M72.481 226.548c-.388 0-.776-.008-1.168-.027-14.575-.685-24.934-14.963-26.174-27.806-1.168-12.147 3.724-25.588 13.779-37.857 25.687-31.352 70.853-44.933 134.173-40.414 9.91.715 20.057 1.72 29.872 2.69 38.2 3.782 77.7 7.7 114.15-4.459 26.581-8.872 49.8-25.82 72.264-42.21 6.441-4.706 13.1-9.568 19.737-14.16C468.037 35.363 500.062 24.776 530 28.957c25.352 3.557 49.913 18.059 75.083 44.329 8.72 9.1 16.968 18.919 24.941 28.415 10.706 12.745 21.776 25.923 34.106 37.492 68.76 64.53 184.425 74.638 263.335 23.005 15.575-10.188 23.233-20.947 22.762-31.98-.278-6.384-3.356-12.163-8.91-16.713-7.635-6.254-19.083-9.26-29.161-7.7-13.422 2.1-25.333 9.56-36.857 16.774-3.04 1.9-6.19 3.869-9.306 5.707-59.265 34.882-138.091 33.558-196.161-3.31-22.218-14.107-41.357-32.874-59.869-51.021-9.063-8.884-18.436-18.075-28.063-26.608C545.513 15.071 510.486-.486 477.624 1.055c-39.809 1.887-72.283 27.943-103.692 53.14-27.4 21.985-55.723 44.709-89.41 52.42-26.014 5.95-53.052 2.359-79.207-1.122-18.413-2.446-37.424-4.972-56.1-4.2C80.348 104.158 16.6 156.93.928 224.049L0 223.83c15.769-67.52 79.9-120.61 149.173-123.494 18.74-.772 37.819 1.758 56.267 4.215 26.071 3.462 53.029 7.046 78.869 1.13 33.475-7.654 61.715-30.313 89.03-52.226C404.862 28.165 437.465 2.01 477.579.104c33.087-1.548 68.38 14.088 104.955 46.528 9.64 8.548 19.022 17.751 28.1 26.646 18.478 18.116 37.58 36.842 59.714 50.9 57.762 36.674 136.193 38 195.168 3.295 3.112-1.83 6.251-3.8 9.286-5.7 11.6-7.263 23.595-14.772 37.211-16.9 10.333-1.621 22.077 1.48 29.91 7.9 5.771 4.725 8.974 10.744 9.26 17.409.487 11.387-7.316 22.427-23.191 32.813-38.614 25.272-86.949 36.834-136.105 32.531s-94.756-24.055-128.405-55.639c-12.364-11.6-23.454-24.808-34.182-37.576-7.963-9.481-16.2-19.288-24.9-28.362C579.376 47.83 555 33.423 529.866 29.9c-29.636-4.154-61.494 6.391-100.207 33.186-6.623 4.588-13.281 9.45-19.726 14.145-22.514 16.435-45.8 33.429-72.515 42.343-36.64 12.227-76.251 8.3-114.55 4.508-9.808-.97-19.95-1.974-29.842-2.686-63.019-4.52-107.892 8.963-133.374 40.068-9.9 12.067-14.712 25.265-13.566 37.161 1.2 12.448 11.2 26.288 25.272 26.946.377.019.749.027 1.118.027 14.126 0 25.044-12.6 30.633-24.641a167.641 167.641 0 0 0 6.072-15.822c2.838-8.191 5.767-16.659 10.584-24.04 14.426-22.115 45.086-33.052 81.977-29.218 12.258 1.267 24.572 3.785 36.48 6.224 17.428 3.565 35.495 7.3 53.459 7.031 36.355-.457 71.07-16.876 100.234-32.877 5.783-3.177 11.645-6.483 17.314-9.686 24.976-14.1 50.8-28.685 78.747-36.678 38.93-11.151 77.248-6.178 102.494 13.3 15.514 11.957 25.866 31.192 27.7 51.447 1.514 16.77-3.177 32.128-13.209 43.248-6.308 6.992-16.214 12.037-24.112 7.54-7.578-4.314-8.533-15.271-5.585-23.393a74.216 74.216 0 0 1 5.665-11.341 71.534 71.534 0 0 0 5.691-11.455c8.035-22.655-9.8-47.25-30.827-55.148-18.577-6.981-41.087-5.532-68.806 4.451A253.254 253.254 0 0 0 366.2 176.977c-4.676 6.692-14.575 23.435-5.425 34.277 6.467 7.677 19.159 6.68 27.205 1.37 7.483-4.946 12.573-12.748 17.5-20.293q.907-1.392 1.819-2.777a250.257 250.257 0 0 1 84.225-78.884c9.26-5.284 40.973-21.168 60.318-3.656 15.872 14.373 10.907 41.852-3.686 58.5-10.837 12.365-25.226 19.616-38.761 19.616-.5 0-1-.011-1.5-.03-16.53-.662-30.888-13.247-32.006-28.05-.734-9.766 5.2-19.106 15.507-24.378 10.394-5.319 22-4.634 29.564 1.739 7.483 6.3 10.295 17.093 7.346 28.175-3.017 11.348-11.029 19.513-20.909 21.312l-.171-.936c9.515-1.731 17.241-9.633 20.163-20.62 2.849-10.721.152-21.145-7.038-27.2-7.281-6.133-18.478-6.764-28.521-1.621-7.8 3.995-15.838 12.254-14.989 23.458 1.08 14.339 15.031 26.532 31.093 27.171 13.719.548 28.457-6.65 39.512-19.258 14.3-16.306 19.216-43.172 3.759-57.165-18.877-17.093-50.092-1.43-59.208 3.774a249.181 249.181 0 0 0-83.9 78.587c-.6.917-1.214 1.841-1.818 2.77-4.972 7.624-10.123 15.514-17.77 20.566-8.389 5.539-21.655 6.517-28.457-1.545-9.576-11.352.567-28.567 5.372-35.442a254.138 254.138 0 0 1 121.239-92.793c27.932-10.063 50.659-11.523 69.46-4.451 21.445 8.054 39.607 33.182 31.39 56.358a72.83 72.83 0 0 1-5.764 11.611 73.187 73.187 0 0 0-5.6 11.192c-2.819 7.753-1.963 18.181 5.159 22.24 7.4 4.2 17.078-.86 22.937-7.354 9.853-10.919 14.457-26.022 12.969-42.521-1.8-20-12.022-38.983-27.327-50.785-25.014-19.284-63.023-24.188-101.657-13.133-27.829 7.966-53.611 22.522-78.538 36.594-5.672 3.2-11.535 6.513-17.321 9.69-29.267 16.058-64.119 32.539-100.679 33-18.162.278-36.195-3.466-53.665-7.049-11.885-2.435-24.177-4.95-36.389-6.213-36.564-3.778-66.858 6.985-81.083 28.8-4.752 7.282-7.662 15.7-10.477 23.831a169.316 169.316 0 0 1-6.114 15.914c-5.71 12.3-16.922 25.189-31.489 25.189"></path></svg>